HIERARCHY
ROOT Hips
{
	OFFSET -0.001795 -0.223333 0.028219
	CHANNELS 6 Xposition Yposition Zposition Zrotation Yrotation Xrotation 
	JOINT LeftUpLeg
	{
		OFFSET 0.069520 -0.091406 -0.006815
		CHANNELS 3 Zrotation Yrotation Xrotation
		JOINT LeftLeg
		{
			OFFSET 0.034277 -0.375199 -0.004496
			CHANNELS 3 Zrotation Yrotation Xrotation
			JOINT LeftFoot
			{
				OFFSET -0.013596 -0.397961 -0.043693
				CHANNELS 3 Zrotation Yrotation Xrotation
				JOINT LeftToe
				{
					OFFSET 0.026358 -0.055791 0.119288
					CHANNELS 3 Zrotation Yrotation Xrotation
					End Site
					{
						OFFSET 0.000000 0.000000 0.000000
					}
				}
			}
		}
	}
	JOINT RightUpLeg
	{
		OFFSET -0.067670 -0.090522 -0.004320
		CHANNELS 3 Zrotation Yrotation Xrotation
		JOINT RightLeg
		{
			OFFSET -0.038290 -0.382569 -0.008850
			CHANNELS 3 Zrotation Yrotation Xrotation
			JOINT RightFoot
			{
				OFFSET 0.015774 -0.398415 -0.042312
				CHANNELS 3 Zrotation Yrotation Xrotation
				JOINT RightToe
				{
					OFFSET -0.025372 -0.048144 0.123348
					CHANNELS 3 Zrotation Yrotation Xrotation
					End Site
					{
						OFFSET 0.000000 0.000000 0.000000
					}
				}
			}
		}
	}
	JOINT Spine
	{
		OFFSET -0.002533 0.108963 -0.026696
		CHANNELS 3 Zrotation Yrotation Xrotation
		JOINT Spine1
		{
			OFFSET 0.005487 0.135180 0.001092
			CHANNELS 3 Zrotation Yrotation Xrotation
			JOINT Spine2
			{
				OFFSET 0.001457 0.052922 0.025425
				CHANNELS 3 Zrotation Yrotation Xrotation
				JOINT Neck
				{
					OFFSET -0.002778 0.213870 -0.042857
					CHANNELS 3 Zrotation Yrotation Xrotation
					JOINT Head
					{
						OFFSET 0.005152 0.064970 0.051349
						CHANNELS 3 Zrotation Yrotation Xrotation
						End Site
						{
							OFFSET 0.000000 0.000000 0.000000
						}
					}
				}
				JOINT LeftShoulder
				{
					OFFSET 0.078845 0.121749 -0.034090
					CHANNELS 3 Zrotation Yrotation Xrotation
					JOINT LeftArm
					{
						OFFSET 0.090977 0.030469 -0.008868
						CHANNELS 3 Zrotation Yrotation Xrotation
						JOINT LeftForeArm
						{
							OFFSET 0.259612 -0.012772 -0.027456
							CHANNELS 3 Zrotation Yrotation Xrotation
							JOINT LeftHand
							{
								OFFSET 0.249234 0.008986 -0.001171
								CHANNELS 3 Zrotation Yrotation Xrotation
								End Site
								{
									OFFSET 0.000000 0.000000 0.000000
								}
							}
						}
					}
				}
				JOINT RightShoulder
				{
					OFFSET -0.081759 0.118833 -0.038615
					CHANNELS 3 Zrotation Yrotation Xrotation
					JOINT RightArm
					{
						OFFSET -0.096012 0.032551 -0.009143
						CHANNELS 3 Zrotation Yrotation Xrotation
						JOINT RightForeArm
						{
							OFFSET -0.253742 -0.013329 -0.021401
							CHANNELS 3 Zrotation Yrotation Xrotation
							JOINT RightHand
							{
								OFFSET -0.255298 0.007772 -0.005559
								CHANNELS 3 Zrotation Yrotation Xrotation
								End Site
								{
									OFFSET 0.000000 0.000000 0.000000
								}
							}
						}
					}
				}
			}
		}
	}
}
MOTION
Frames: 13
Frame Time: 0.050000
0.000000 0.949858 0.000000 -0.416274 -0.387980 4.180589 1.845219 -0.056845 -0.200880 -0.538480 0.188779 -4.445395 -3.087871 -3.941937 4.812739 0.000000 0.000000 0.000000 3.091252 -0.145881 0.288773 -1.821289 -0.021843 -3.786632 4.844904 8.026562 6.041097 0.000000 0.000000 0.000000 2.567781 0.278901 -5.317992 -1.626086 0.797965 -3.011965 -1.156963 -1.386901 8.018066 3.367849 -1.165080 -15.451925 0.000000 0.000000 0.000000 -10.568631 -5.197771 1.634939 -13.648815 -4.584095 -1.406828 19.923745 -3.061321 -0.274699 0.000000 0.000000 0.000000 4.284082 1.300044 0.070548 15.825733 -3.194971 -1.777444 -13.723387 3.606516 -0.058502 0.000000 0.000000 0.000000 
-0.000820 0.949771 0.001746 -0.619295 0.135244 4.655858 2.639122 -0.061766 0.057667 -1.167814 0.258611 -5.623120 -4.236755 -5.797231 5.468682 0.000000 0.000000 0.000000 2.492653 -0.175133 0.698205 -1.222350 -0.108225 -4.683097 5.098724 8.758571 5.893898 0.000000 0.000000 0.000000 2.422570 0.274381 -5.419256 -1.791567 0.861104 -1.561577 -1.465014 -1.258554 6.107254 3.075075 -0.766473 -16.765187 0.000000 0.000000 0.000000 -9.818955 -4.788858 1.356533 -14.056950 -4.469881 -1.370700 18.707695 -4.528202 -0.454582 0.000000 0.000000 0.000000 5.113608 -0.787944 -0.806092 15.758637 -4.740667 -1.855738 -12.475426 7.281182 -0.325276 0.000000 0.000000 0.000000 
-0.001423 0.949563 0.003087 -0.559125 -0.690063 4.523168 2.629266 -0.020795 0.585067 -0.994236 0.241444 -5.243902 -4.315252 -6.824673 4.049842 0.000000 0.000000 0.000000 2.090147 -0.149522 0.607992 -0.765841 -0.137125 -4.677089 5.101796 9.625257 4.586753 0.000000 0.000000 0.000000 3.037480 0.267451 -5.038349 -2.764804 1.295071 -3.584382 -1.655063 -0.163494 7.962608 4.525268 -1.673411 -16.220475 0.000000 0.000000 0.000000 -8.551174 -4.264098 1.128948 -14.988848 -3.822478 -1.524313 18.449436 -4.687060 -0.486543 0.000000 0.000000 0.000000 5.919903 -0.199755 -0.589698 16.909090 -5.446698 -2.152857 -14.361586 5.978716 -0.266197 0.000000 0.000000 0.000000 
-0.002101 0.950137 0.004294 -0.517710 -0.447557 5.223193 3.459980 -0.073095 0.241661 -2.341646 0.332582 -5.814900 -5.396876 -8.237692 5.263906 0.000000 0.000000 0.000000 2.016505 -0.100184 0.187810 0.267323 -0.210386 -4.939146 5.623688 10.547124 5.032692 0.000000 0.000000 0.000000 2.434385 0.314127 -6.079843 -2.818227 1.320328 -3.005229 -1.194380 -0.963445 7.706000 3.915492 -1.307678 -16.835018 0.000000 0.000000 0.000000 -9.378975 -3.710594 0.942216 -16.006036 -2.065301 -1.780967 18.838924 -4.861075 -0.494451 0.000000 0.000000 0.000000 6.317432 0.624752 -0.356510 17.237873 -7.289231 -2.337540 -13.729241 6.180305 -0.282991 0.000000 0.000000 0.000000 
-0.002571 0.950447 0.005257 -0.336386 -0.494583 5.124306 3.164565 -0.049009 0.471840 -2.368453 0.338972 -6.147338 -5.698227 -8.808214 5.303167 0.000000 0.000000 0.000000 2.070404 -0.103540 0.202893 0.192609 -0.206293 -4.950655 5.367675 10.002729 4.948957 0.000000 0.000000 0.000000 2.049323 0.283915 -5.724074 -2.509810 1.184216 -3.102882 -1.398003 -0.701159 7.255242 4.107892 -1.446368 -16.252635 0.000000 0.000000 0.000000 -9.995732 -3.461108 0.757002 -16.343641 -1.180742 -1.866369 18.051317 -5.573200 -0.564102 0.000000 0.000000 0.000000 6.854193 0.073669 -0.612572 18.576677 -6.924431 -2.509986 -14.416581 6.258726 -0.305111 0.000000 0.000000 0.000000 
-0.002869 0.950274 0.006005 -0.101698 -0.287826 5.395556 2.617173 -0.053798 0.218782 -2.304969 0.336463 -6.326679 -6.487682 -10.084838 5.714987 0.000000 0.000000 0.000000 1.496792 -0.056843 -0.012472 0.528373 -0.209838 -4.468355 5.530317 10.633146 4.643461 0.000000 0.000000 0.000000 1.465114 0.278160 -5.922733 -2.572854 1.213585 -1.948615 -0.699245 -1.624599 6.460661 3.763250 -1.182986 -17.562342 0.000000 0.000000 0.000000 -10.464541 -2.256000 0.307409 -17.816553 -0.595786 -2.100722 17.604855 -5.962727 -0.556884 0.000000 0.000000 0.000000 6.423004 0.003067 -0.687141 20.631072 -6.029122 -2.660371 -14.281864 6.373284 -0.334074 0.000000 0.000000 0.000000 
-0.002833 0.950366 0.006560 -0.020547 -0.244345 5.493504 2.618409 -0.054583 0.217512 -2.447301 0.343526 -6.310662 -6.612307 -10.331314 5.708425 0.000000 0.000000 0.000000 1.480494 -0.003538 -0.479439 0.407460 -0.189766 -4.122441 5.496831 10.845395 4.261968 0.000000 0.000000 0.000000 1.252484 0.258289 -5.650800 -2.408638 1.139440 -1.925624 -0.541344 -1.777837 6.481204 3.705555 -1.163571 -17.596020 0.000000 0.000000 0.000000 -11.272569 -1.497715 -0.057595 -18.715983 -0.287787 -2.245537 16.891827 -6.764792 -0.608852 0.000000 0.000000 0.000000 7.205534 0.091108 -0.752144 21.658438 -5.357690 -2.716162 -14.079751 6.610455 -0.351502 0.000000 0.000000 0.000000 
-0.002525 0.950310 0.007195 0.051108 -0.512930 5.693587 2.345180 -0.045500 0.236645 -2.286643 0.332486 -6.026806 -6.721656 -10.485257 5.831337 0.000000 0.000000 0.000000 1.193041 0.099738 -1.337037 0.614758 -0.167580 -3.075283 5.437553 10.833741 4.072982 0.000000 0.000000 0.000000 1.202336 0.251947 -5.539911 -2.327944 1.101106 -1.850447 -0.281371 -2.005186 6.839421 3.630833 -1.116745 -18.185688 0.000000 0.000000 0.000000 -12.225397 -0.871728 -0.328894 -19.859944 -0.224227 -2.424990 16.009221 -7.301915 -0.605415 0.000000 0.000000 0.000000 8.285630 0.107016 -0.907895 22.775210 -3.552733 -2.611130 -14.202554 6.703542 -0.374578 0.000000 0.000000 0.000000 
-0.002074 0.950019 0.008180 0.149522 -0.418653 5.755021 2.004032 -0.032962 0.282276 -2.369522 0.331410 -5.649825 -6.276558 -9.873491 5.418924 0.000000 0.000000 0.000000 1.082013 0.147484 -1.742804 0.712125 -0.155923 -2.498442 5.249173 10.721492 3.636582 0.000000 0.000000 0.000000 1.084085 0.242229 -5.405693 -2.223933 1.053337 -1.455882 -0.117513 -2.170621 6.866304 3.185454 -0.865701 -18.257709 0.000000 0.000000 0.000000 -12.668513 -0.567471 -0.475920 -21.895021 -0.591081 -2.627671 15.422763 -8.770053 -0.707043 0.000000 0.000000 0.000000 9.124832 0.381704 -0.906325 24.540476 -2.223112 -2.618661 -14.312192 7.232324 -0.432477 0.000000 0.000000 0.000000 
-0.001668 0.950060 0.009657 0.277617 -0.534941 5.797258 1.821583 -0.020351 0.375549 -2.574630 0.336329 -5.003655 -5.766814 -9.081321 5.093697 0.000000 0.000000 0.000000 1.125246 0.190158 -2.144937 0.370152 -0.101460 -1.753034 5.006675 10.606145 3.012139 0.000000 0.000000 0.000000 1.000104 0.235024 -5.286120 -2.187167 1.035291 -1.086871 0.196915 -2.416695 6.889838 2.984672 -0.748219 -18.727851 0.000000 0.000000 0.000000 -13.609627 -0.024969 -0.726881 -23.820711 -0.673151 -2.869290 14.894228 -11.206356 -0.877800 0.000000 0.000000 0.000000 10.110976 0.545180 -1.001926 25.957421 -0.587822 -2.480772 -14.262280 8.170816 -0.530055 0.000000 0.000000 0.000000 
-0.001308 0.949213 0.011682 0.336116 -0.354781 5.688367 1.597957 0.029339 0.929454 -2.594611 0.338225 -5.130788 -5.618464 -8.855375 4.964000 0.000000 0.000000 0.000000 0.913620 0.212265 -2.299935 0.699132 -0.116078 -1.328801 4.328607 9.311749 2.522268 0.000000 0.000000 0.000000 1.057337 0.224577 -5.066468 -2.316219 1.094534 -0.632209 0.398095 -2.701254 6.625489 2.563656 -0.509698 -18.919766 0.000000 0.000000 0.000000 -14.790039 -0.265528 -0.638627 -25.719767 -0.660385 -3.103043 14.461667 -13.875288 -1.059740 0.000000 0.000000 0.000000 11.288928 1.312008 -0.841796 28.054598 0.343919 -2.486827 -14.666694 9.770697 -0.720725 0.000000 0.000000 0.000000 
-0.001152 0.948880 0.014209 0.458040 -0.930013 5.748870 1.287605 0.030141 0.792052 -2.374937 0.309615 -3.814543 -4.927414 -8.204010 3.843746 0.000000 0.000000 0.000000 0.955170 0.259020 -2.760771 0.370407 -0.037514 -0.001722 3.283741 7.824210 0.943026 0.000000 0.000000 0.000000 0.981302 0.198861 -4.538219 -2.443184 1.152498 -0.946088 0.833292 -2.604204 6.835687 2.379498 -0.374144 -19.735601 0.000000 0.000000 0.000000 -16.269466 -0.097253 -0.733940 -28.359565 -0.327414 -3.520703 13.495781 -17.674062 -1.222949 0.000000 0.000000 0.000000 12.953752 1.590603 -0.961426 30.122461 1.768721 -2.366904 -15.117930 12.136599 -1.013014 0.000000 0.000000 0.000000 
-0.001443 0.948303 0.017291 0.513897 -1.050056 5.796648 1.005440 0.061096 1.051068 -2.064826 0.279790 -3.405898 -4.315581 -7.216801 3.430503 0.000000 0.000000 0.000000 0.594991 0.343689 -3.514485 0.947958 -0.055766 1.260182 1.948507 5.030875 0.009186 0.000000 0.000000 0.000000 1.092260 0.197861 -4.488489 -2.290711 1.081974 -0.604235 0.764257 -2.471570 6.787214 1.968035 -0.096096 -20.187268 0.000000 0.000000 0.000000 -18.079351 -0.716546 -0.521860 -30.926961 -0.374003 -3.825155 11.952516 -20.651050 -1.181553 0.000000 0.000000 0.000000 15.191482 2.639985 -0.707908 32.800938 3.156210 -2.247461 -15.739541 14.784882 -1.361665 0.000000 0.000000 0.000000 
